<svg id="Layer_1" data-name="Layer 1" xmlns="http://www.w3.org/2000/svg" viewBox="0 0 1095.55 140.36"><title>DENAMIC</title><path d="M337.22,293.78H322.46l-.07-.69,34.71-7.2-.06-.67H339.83c4.9-17.23,9.68-34.06,14.65-51.57H338.2l0-.72,34.1-8.11-.09-.63h-17c1.08-8.93,2.11-17.51,3.13-26a4.77,4.77,0,0,1,1.27-.51c17.11.05,34.22,0,51.33.28a22.66,22.66,0,0,1,9.22,2.12c4.24,2,8.52,2.35,13,2.26a148.3,148.3,0,0,1,18.19.61l-35.42,7.93,0,.68c5.66,0,11.33.14,17-.06a4.56,4.56,0,0,1,4.71,2.76c4.83,8.66,4.35,17.84,3.23,27.23-1.76,14.75-3.2,29.54-4.14,44.59.52-1.05,1.07-2.08,1.56-3.14,6.84-15,13.56-30.09,20.54-45,9.26-19.81,24.17-33.19,45.54-38.73A53.92,53.92,0,0,1,517,197.69c12.86-.19,25.73-.07,38.6-.07.69,0,1.37.12,2.47.22-3.73,13.17-7.4,26.14-11.2,39.54h16.56l.12.86L528,246.34l.08.52H544l-14.51,50.92h66.46l.09.86-37,8,0,.53c5.25,0,10.5,0,15.75,0,14,.1,18.34,5.72,14.9,19.27-.93,3.64-1.16,8.42-3.58,10.42-2.21,1.83-7,.72-10.57.72q-39.66,0-79.33,0c-11.94,0-18-7.85-14.7-19.45,7.15-25.29,14.46-50.53,21.69-75.8.41-1.43.77-2.89,1.15-4.32-2.93-1.39-3.46.75-4.23,2.4q-17.46,37.3-34.9,74.63c-1.5,3.2-2.87,6.48-4.54,9.59-4.47,8.32-11.07,13.15-21,13-12.74-.2-25.5-.05-38.25-.05-8.93,0-13.52-4.86-12.62-13.88,1.08-10.91,2.49-21.8,3.78-32.69q3-25.12,6-50.25c.11-.92.1-1.85.14-2.77l-1.07-.55a14.24,14.24,0,0,0-1.91,3.16q-9.6,33.11-19.08,66.24c-.91,3.17-1.84,6.34-2.75,9.51-3.82,13.23-14.44,21.23-28.21,21.23H324.82C329,322.91,333,308.57,337.22,293.78Z" transform="translate(311.71 -197.54)"/><path d="M-6.11,337.58,6.22,294.34H-9.27l-.15-.82,35.6-7.82,0-.55H8.85l14.73-51.69h-17l-.08-.62,35.3-8-.05-.5H24.22c1.11-9,2.18-17.73,3.29-26.75h4c15.58.06,31.18-.37,46.74.33,21.13,1,34.5,17.21,32.21,38.22-2.1,19.24-4.28,38.46-6.42,57.69-.13,1.16-.16,2.34-.25,3.66,2.56,1.1,3.71.33,4.47-2.34,8.88-31.28,17.9-62.53,26.75-93.83.82-2.9,2-3.86,5-3.81,11.45.19,22.9.07,34.35.07h4.38l-18.58,64.71h17.55l.08.7-36.59,8,.08.62H157.6l-5.41,18.92c-4.17,14.62-8.39,29.22-12.47,43.86-.63,2.26-1.4,3.25-4,3.22-14-.15-28.09.09-42.14-.13A33.64,33.64,0,0,1,70.23,328a7.76,7.76,0,0,0-4.56-1.89c-4.23-.26-8.48-.09-12.87-.78L88,317.59l0-.68H70.64c-8.79,0-9.58-.29-9.73-9.35-.13-7.62.81-15.29,1.61-22.9,1.6-15.13,3.44-30.23,5.17-45.35a15.88,15.88,0,0,0,0-1.69c-3.13-.88-2.87,1.63-3.28,3q-8.66,29.89-17.15,59.81c-1.66,5.78-3.4,11.54-5,17.34-3.12,11.66-16.12,20.67-26.71,19.88C8.57,337.16,1.46,337.58-6.11,337.58Z" transform="translate(311.71 -197.54)"/><path d="M-281.95,233.54H-299.2l-.09-.68,33.67-7.1-.06-.74h-15.76c1.05-8.71,2-17,3.14-25.28a3.36,3.36,0,0,1,2.48-2c2.8-.27,5.65-.11,8.49-.11,30.56,0,61.13-.12,91.7.11a62.13,62.13,0,0,1,17.38,2.47c13.48,4.09,22.66,16.57,23.44,30.64.11,2,0,4,0,6.22H-119l.15.89-33.28,7,.06.53h16c-5.07,17.62-10,34.85-15.07,52.34h17l.15.88-36.37,7.91,0,.41h13.94c-2.71,3.36-4.67,6.1-6.94,8.55-10.66,11.51-23.48,19.2-39.17,21.63a28.37,28.37,0,0,1-4.22.34q-51.34,0-102.68,0h-2.34C-301.76,302.78-291.9,268.33-281.95,233.54Zm105.66,4.12a12,12,0,0,0-1.62-.33c-20.06,0-40.13,0-60.2-.09-2.3,0-2.62,1.29-3.09,3-3.24,11.45-6.55,22.88-9.83,34.32-2.2,7.68-4.38,15.36-6.56,23,.45.21.55.3.66.3,20.53.06,41.06.14,61.59.13a2.72,2.72,0,0,0,2.14-1.25c1.31-4.13,2.41-8.32,3.69-12.89h-17.22l-.07-.62,35.94-7.83-.12-.77H-186.8l3-10.84H-200l0-.63,36.45-7.94,0-.58H-181Z" transform="translate(311.71 -197.54)"/><path d="M314.82,337.56c-10.69,0-21.07.15-31.43-.06a9.78,9.78,0,0,1-9.48-10c0-4.45.72-8.91,1.1-13.37.19-2.2.35-4.39.54-6.91h-19l-.05-.52,36.73-8c0-.24-.05-.48-.07-.71h-4c-23.85,0-47.69,0-71.53-.06-2.37,0-3.56.68-4.53,2.83-3.43,7.63-7,15.18-10.65,22.73-4.47,9.37-11.47,14.57-22.33,14.15-8.47-.34-17-.07-26-.07,6.66-14.53,13.16-28.7,19.85-43.32H157l-.11-.72,35.31-7.81v-.47H178.15c8.09-17.46,15.93-34.36,24-51.68H186l-.09-.7,36.8-8-.1-.64H208.43a26.8,26.8,0,0,1,1.72-2.53c13.69-15.29,30.08-24.73,51.3-24.14,11,.31,22-.24,32.92.37,21.26,1.18,34.85,18.66,31.67,39.71-1.3,8.59-2,17.28-2.94,26.2h17.61l.11.7-36.64,8,.06.53h17.95C319.72,294.65,317.29,315.89,314.82,337.56Zm-31.27-99.64c-.54-.31-.74-.52-.94-.52-12.86-.05-25.73-.12-38.59,0a3.94,3.94,0,0,0-2.68,2.13c-3.43,7.47-6.7,15-10,22.54a5.6,5.6,0,0,0-.15,1.3c15.89,0,31.69,0,47.48-.08a2.76,2.76,0,0,0,2-1.71C281.77,253.65,282.65,245.71,283.55,237.92Z" transform="translate(311.71 -197.54)"/><path d="M-24.94,243.39H-40.68c.48-2.06.9-3.84,1.43-6.1h-4c-19.13,0-38.25.12-57.37-.12a22.68,22.68,0,0,1-10.4-2.55c-5.29-2.94-7.15-8.29-5.88-14,1.7-7.69,4.11-15.21,6.15-22.59a5.34,5.34,0,0,1,1.08-.31c26,.06,52-.36,77.9.39,15.69.45,26.8,8.84,32.11,24,.66,1.9,1.59,2.26,3.32,2.23a91,91,0,0,1,13.55.57l-36.59,8,0,.49h22C2,237.88,1.8,242.11.73,246.11c-3.27,12.3-6.88,24.51-10.35,36.75-.21.78-.37,1.57-.66,2.81H3.54l.07.72-33.69,7.09,0,.73h16.6a70.12,70.12,0,0,1-18,24.81c-13.71,12.24-29.43,19-48.22,18.66-22.19-.43-44.39-.1-66.58-.1h-4.89c3.1-9.11,5.1-18.21,9.22-26.21,4.59-8.92,13.16-13.31,23.42-13.35,19.25-.08,38.49,0,57.73,0h4.27l4.1-14.35H-56.5q-21.25,0-42.5,0c-12.75,0-18.84-8-15.49-20.23.22-.8.42-1.6.67-2.38,1-3,1.08-7.16,3.14-8.67s6.11-.52,9.28-.55c4.49,0,9-.25,13.46,0,18.56,1.17,36.68-1.39,54.6-6,2.8-.71,5.66-1.24,8.49-1.85Z" transform="translate(311.71 -197.54)"/><path d="M743.32,337.58H658c-23.39,0-38.56-15.66-37.78-39,0-1.29,0-2.57,0-4.18H605.54l-.15-1,33.55-7.06c0-.18,0-.36,0-.54H622.18c6-17.66,8.75-35.73,17.21-52.34H623l-.07-.62,33.87-7.15c0-.23-.07-.45-.1-.67h-11c1.13-1.43,1.81-2.42,2.61-3.28,14.56-15.53,32-24.4,53.77-24.22,25.5.2,51,0,76.49,0h5.22c-3.06,9-5,18-9.05,26-4.68,9.21-13.25,13.74-23.89,13.73-22.55,0-45.09.08-67.64-.11-3.55,0-4.83,1.16-5.65,4.42-1.85,7.3-4.13,14.48-6.35,22.1h17.35c0,.29.09.58.13.87l-36.09,7.95V273h16c-2.4,8.51-4.67,16.59-7,25h4.23q33.28,0,66.58,0a32.55,32.55,0,0,1,6.32.51c7.9,1.58,12.22,7.92,11,15.89a23.51,23.51,0,0,1-.53,2.78C747.25,323.89,745.33,330.56,743.32,337.58Z" transform="translate(311.71 -197.54)"/><path d="M632.38,238l-35.26,7.67c0,.22,0,.43.07.65h14.62a15.18,15.18,0,0,1-.21,2.61c-4.08,14.28-8.22,28.54-12.27,42.83-.46,1.6-.83,2.7-2.93,2.69-18.66-.08-37.31-.05-56-.07a10.43,10.43,0,0,1-1.55-.37l37.27-8.09-.11-.7H558.67l14.64-51.66H557.05l0-.69,36.09-7.9c0-.2,0-.4,0-.59H573.91c1.12-9,2.19-17.6,3.29-26.46h49c-3.69,13-7.35,25.93-11.16,39.35h17.27C632.33,237.49,632.35,237.73,632.38,238Z" transform="translate(311.71 -197.54)"/></svg>